<?xml version="1.0" encoding="iso-8859-1"?>
<!-- Generator: Adobe Illustrator 15.0.0, SVG Export Plug-In . SVG Version: 6.00 Build 0)  -->
<!DOCTYPE svg PUBLIC "-//W3C//DTD SVG 1.1//EN" "http://www.w3.org/Graphics/SVG/1.1/DTD/svg11.dtd">
<svg version="1.1" id="Layer_1" xmlns="http://www.w3.org/2000/svg" xmlns:xlink="http://www.w3.org/1999/xlink" x="0px" y="0px"
	 width="782px" height="234.5px" viewBox="0 0 782 234.5" style="enable-background:new 0 0 782 234.5;" xml:space="preserve">
<g>
	<path style="fill:#FCE253;" d="M248.414,54.613c-1.072-2.648-3.662-3.975-6.371-4.363c-6.035-0.864-12.137-0.786-18.184-1.834
		c-2.471-0.428-5.975-0.734-8.797-1.78c-1.244-8.711-5.264-16.954-12.16-23.147c-22.793-20.466-63.367-8.627-74.104,19.199
		c-7.904,20.485,2.594,39.842,15.205,55.705c-25.268-5.584-56.522-5.537-80.572,3.531c-26.8,10.104-53.207,30.779-52.269,62.125
		c0.001,0.053,0.003,0.104,0.005,0.158c0.476,14.808,7.69,29.267,19.235,38.552c29.674,23.864,80.508,21.319,114.887,11.277
		c27.508-8.035,53.535-25.207,55.334-56.34c0.834-14.448-5.633-28.038-6.574-42.313c-1.121-17.047,10.166-29.723,17.1-44.013
		c0.695-1.431,1.723-3.581,2.252-5.066c4.186-1.029,8.17-0.427,12.49-0.825c5.854-0.538,12.326-0.986,17.938-2.801
		C247.352,61.539,249.938,58.37,248.414,54.613 M131.959,147.708c-11.211,3.274-23.873,5.2-35.656,5.423c-0.004,0-0.004,0-0.006,0
		c-15.081,0.284-28.032-2.305-35.439-6.98c3.996-3.89,10.768-7.979,18.642-10.948c10.336-3.897,21.401-6.063,31.997-6.263
		c12.164-0.23,23.547,2.148,32.92,6.877c2.152,1.085,4.01,2.447,5.541,3.888C146.598,142.121,141.051,145.052,131.959,147.708"/>
	<path style="fill:#FCE253;" d="M248.414,54.613c-1.072-2.648-3.662-3.975-6.371-4.363c-6.035-0.864-12.137-0.786-18.184-1.834
		c-2.471-0.428-5.975-0.734-8.797-1.78c-1.244-8.711-5.264-16.954-12.16-23.147c-22.793-20.466-63.367-8.627-74.104,19.199
		c-7.904,20.485,2.594,39.842,15.205,55.705c-25.268-5.584-56.522-5.537-80.572,3.531c-26.8,10.104-53.207,30.779-52.269,62.125
		c0.001,0.053,0.003,0.104,0.005,0.158c0.476,14.808,7.69,29.267,19.235,38.552c29.674,23.864,80.508,21.319,114.887,11.277
		c27.508-8.035,53.535-25.207,55.334-56.34c0.834-14.448-5.633-28.038-6.574-42.313c-1.121-17.047,10.166-29.723,17.1-44.013
		c0.695-1.431,1.723-3.581,2.252-5.066c4.186-1.029,8.17-0.427,12.49-0.825c5.854-0.538,12.326-0.986,17.938-2.801
		C247.352,61.539,249.938,58.37,248.414,54.613 M131.959,147.708c-11.211,3.274-23.873,5.2-35.656,5.423c-0.004,0-0.004,0-0.006,0
		c-15.081,0.284-28.032-2.305-35.439-6.98c3.996-3.89,10.768-7.979,18.642-10.948c10.336-3.897,21.401-6.063,31.997-6.263
		c12.164-0.23,23.547,2.148,32.92,6.877c2.152,1.085,4.01,2.447,5.541,3.888C146.598,142.121,141.051,145.052,131.959,147.708"/>
	<g style="opacity:0.39;">
		<g>
			<defs>
				<rect id="SVGID_1_" x="99.648" y="91.021" width="55.955" height="14.158"/>
			</defs>
			<clipPath id="SVGID_2_">
				<use xlink:href="#SVGID_1_"  style="overflow:visible;"/>
			</clipPath>
			<path style="clip-path:url(#SVGID_2_);fill:#FCE253;" d="M99.646,94.826c11.633,0.35,23.242,2.265,34.055,5.939
				c5.434,1.847,11.035,4.196,16.844,4.408c1.574,0.057,7.352-0.186,4.061-2.16c-1.674-1.004-3.557-1.59-5.24-2.6
				c-3.967-2.382-7.703-5.645-10.84-9.391c1.742,2.53,3.586,4.991,5.479,7.371C130.279,95.36,114.791,93.993,99.646,94.826"/>
		</g>
	</g>
	<g style="opacity:0.39;">
		<g>
			<defs>
				<rect id="SVGID_3_" x="11.139" y="13.183" width="237.722" height="208.146"/>
			</defs>
			<clipPath id="SVGID_4_">
				<use xlink:href="#SVGID_3_"  style="overflow:visible;"/>
			</clipPath>
			<path style="clip-path:url(#SVGID_4_);fill:#FCE253;" d="M248.414,54.613c-1.072-2.648-3.662-3.975-6.371-4.363
				c-6.033-0.864-12.137-0.787-18.184-1.834c-2.471-0.429-5.975-0.735-8.797-1.78c-1.244-8.711-5.262-16.954-12.16-23.147
				c-12.561-11.279-30.518-12.73-45.91-7.117c11.561-0.656,23.145,4.181,29.145,14.705c6.951,12.194,4.09,26.245-2.039,38.114
				c-3.854,7.462-8.834,14.211-13.252,21.328c-3.881,6.253-4.283,12.243-1.121,18.86c2.297,4.808,5.006,9.347,5.619,14.751
				c0.689,6.075-0.824,12.485-4.096,17.641c-6.836,10.775-20.156,16.293-31.73,20.271c-14.807,5.089-30.598,7.76-46.25,7.861
				c-15.135,0.099-29.445-3.032-43.596-8.244c-11.56-4.258-24.936-10.659-30.101-22.669c-0.451-1.047-0.784-2.066-1.024-3.06
				c-4.887,8.158-7.7,17.526-7.383,28.117c0.001,0.053,0.003,0.106,0.005,0.159c0.476,14.808,7.69,29.267,19.235,38.552
				c29.674,23.865,80.508,21.32,114.887,11.278c27.508-8.035,53.535-25.207,55.334-56.341c0.834-14.448-5.633-28.039-6.572-42.314
				c-1.123-17.047,10.164-29.723,17.098-44.012c0.695-1.431,1.723-3.581,2.252-5.066c4.186-1.03,8.168-0.428,12.49-0.825
				c5.852-0.539,12.326-0.986,17.936-2.801C247.352,61.539,249.938,58.37,248.414,54.613"/>
		</g>
	</g>
	<g>
		<g>
			<defs>
				<rect id="SVGID_5_" x="11.273" y="153.912" width="189.401" height="45.056"/>
			</defs>
			<clipPath id="SVGID_6_">
				<use xlink:href="#SVGID_5_"  style="overflow:visible;"/>
			</clipPath>
			<path style="clip-path:url(#SVGID_6_);fill:#FCE253;" d="M100.701,198.514c78.93-7.256,95.053-35.78,99.924-40.818
				c0,0,0.072-2.528,0.041-3.784c-8.875,7.78-19.256,26.726-80.219,38.217c-19.816,3.735-40.219,3.483-59.839-1.177
				c-34.226-8.129-48.41-23.533-49.336-25.029c0.09,1.329,0.134,2.673,0.433,3.97C13.587,178.063,56.31,202.595,100.701,198.514"/>
		</g>
	</g>
	<path style="fill:#F7D200;" d="M111.496,128.94c12.164-0.23,23.547,2.148,32.92,6.877c2.152,1.086,4.01,2.447,5.553,3.88
		c18.967-13.646-22.736-23.341-38.705-23.039c-10.594,0.2-21.658,2.365-31.997,6.263c-12.754,4.809-22.626,12.557-22.473,17.639
		l0.002,0.081c0.054,1.375,0.994,3.252,2.062,4.111c0.606,0.488,1.286,0.95,2,1.4c3.995-3.891,10.768-7.98,18.642-10.949
		C89.836,131.306,100.902,129.14,111.496,128.94"/>
	<path style="fill:#F5A361;" d="M248.414,54.613c-1.072-2.648-3.662-3.975-6.371-4.363c-6.033-0.864-12.137-0.787-18.184-1.834
		c-2.471-0.429-5.975-0.735-8.797-1.78c-0.014-0.091-1.15,1.947-6.852,2.522c-2.916,0.295-8.119-0.246-11,0.346
		c-5.703,1.172-8.285,6.456-4.963,12.316c2.291,4.039,7.273,5.192,11.414,5.42c3.1,0.171,18.125-1.384,22.23-1.761
		c5.852-0.539,12.326-0.986,17.936-2.801C247.352,61.539,249.938,58.37,248.414,54.613"/>
	<g style="opacity:0.27;">
		<g>
			<defs>
				<rect id="SVGID_7_" x="190.791" y="56.508" width="58.064" height="0.732"/>
			</defs>
			<clipPath id="SVGID_8_">
				<use xlink:href="#SVGID_7_"  style="overflow:visible;"/>
			</clipPath>
			<path style="clip-path:url(#SVGID_8_);fill:#F5A361;" d="M190.795,56.509c-0.008,0.24-0.006,0.484,0.01,0.732h58.033
				c0.021-0.239,0.02-0.484,0.008-0.732H190.795z"/>
		</g>
	</g>
	<path style="fill:#F2D118;" d="M111.496,128.94c12.164-0.23,23.547,2.148,32.92,6.877c2.152,1.086,4.01,2.447,5.553,3.88
		c18.967-13.646-22.736-23.341-38.705-23.039c-10.594,0.2-21.658,2.365-31.997,6.263c-12.754,4.809-22.626,12.557-22.473,17.639
		l0.002,0.081c0.054,1.375,0.994,3.252,2.062,4.111c0.606,0.488,1.286,0.95,2,1.4c3.995-3.891,10.768-7.98,18.642-10.949
		C89.836,131.306,100.902,129.14,111.496,128.94"/>
	<path style="fill:#FFFFFF;" d="M181.607,48.41c0,5.884-4.77,10.653-10.654,10.653c-5.883,0-10.652-4.769-10.652-10.653
		c0-5.884,4.77-10.653,10.652-10.653C176.838,37.757,181.607,42.526,181.607,48.41"/>
	<path style="fill:#57BFC7;" d="M179.016,48.41c0,4.452-3.609,8.062-8.062,8.062c-4.451,0-8.061-3.61-8.061-8.062
		c0-4.452,3.609-8.062,8.061-8.062C175.406,40.348,179.016,43.958,179.016,48.41"/>
	<path style="fill:#1D1A3A;" d="M173.949,48.41c0,1.654-1.342,2.994-2.994,2.994c-1.654,0-2.996-1.34-2.996-2.994
		c0-1.654,1.342-2.994,2.996-2.994C172.607,45.416,173.949,46.756,173.949,48.41"/>
</g>
<g>
	<path style="fill:#FCE253;stroke:#F5A361;stroke-miterlimit:10;" d="M261.45,171.45c-0.3-7.102,0.849-13.749,3.45-19.95
		c1.099-2.599,2.55-5.25,4.35-7.95c1.8-2.7,4.125-5.25,6.975-7.65c2.851-2.4,6.226-4.549,10.125-6.45
		c3.9-1.898,8.499-3.45,13.801-4.65c1.8-4.699,3.548-9.45,5.25-14.25c1.699-4.8,3.349-9.473,4.949-14.025
		c1.599-4.549,3.174-8.874,4.726-12.975c1.549-4.099,3.075-7.8,4.575-11.1c-9.9,0.801-17.501,2.227-22.801,4.275
		c-5.301,2.051-9.201,4.477-11.699,7.275c-2.501,2.801-3.952,5.775-4.351,8.925c-0.4,3.15-0.6,6.176-0.6,9.075
		c0,2.501-0.9,3.75-2.7,3.75s-3.775-0.825-5.925-2.475c-2.151-1.65-4.125-3.923-5.925-6.825c-1.801-2.899-2.7-6-2.7-9.3
		c0-4.2,1.324-8.048,3.975-11.55c2.648-3.5,6.725-6.525,12.226-9.075c5.498-2.55,12.499-4.523,21-5.925
		c8.498-1.399,18.6-2.1,30.3-2.1c12.099,0,22.8-0.375,32.1-1.125s16.95-1.699,22.95-2.85c6-1.148,10.275-2.423,12.825-3.825
		c2.55-1.399,3.173-2.75,1.875-4.05c-1.401-1.399-1.451-2.325-0.15-2.775c1.299-0.45,3.023-0.249,5.175,0.6
		c2.149,0.851,4.224,2.4,6.226,4.65c1.999,2.25,3,5.376,3,9.375c0,4.2-1.852,7.275-5.55,9.225c-3.701,1.95-8.775,3.25-15.226,3.9
		c-6.45,0.651-14.1,0.876-22.95,0.675c-8.85-0.199-18.375-0.349-28.574-0.45c-2.302,4.301-4.125,8.025-5.476,11.175
		c-1.35,3.15-2.677,6.375-3.975,9.675c-1.401,3.4-2.801,7-4.2,10.8c-1.401,3.802-2.85,7.751-4.35,11.85
		c2.798-1.399,5.599-3.075,8.399-5.025c2.799-1.95,5.499-4.174,8.101-6.675c0.799-2.1,1.549-3.825,2.25-5.175
		c0.698-1.35,1.249-2.224,1.649-2.625c1.2-1.2,3.124-2,5.775-2.4c2.648-0.398,5.175-0.474,7.575-0.225
		c2.399,0.25,4.249,0.825,5.55,1.725c1.298,0.9,1.2,2.1-0.3,3.6c-2.4,2.4-4.327,5.201-5.775,8.4c-1.451,3.201-2.602,6.45-3.45,9.75
		c-0.851,3.3-1.477,6.45-1.875,9.45c-0.4,3-0.802,5.55-1.2,7.65c-0.4,2.1-0.876,3.551-1.425,4.35
		c-0.551,0.802-1.376,0.652-2.475-0.45c-3.3-3.3-5.55-6.773-6.75-10.425c-1.2-3.649-1.8-7.223-1.8-10.725
		c-1.801,1.2-4.301,2.625-7.5,4.275c-3.202,1.65-6.802,3.476-10.801,5.475c-2.901,7.601-5.901,15.075-9,22.425
		c-3.101,7.35-6.325,13.926-9.675,19.725c-3.352,5.798-6.775,10.474-10.274,14.024c-3.502,3.549-7.051,5.325-10.65,5.325
		c-3.502,0-6.427-0.476-8.775-1.425c-2.351-0.951-4.274-2.201-5.774-3.75c-1.5-1.552-2.602-3.3-3.3-5.25
		C261.949,175.425,261.549,173.449,261.45,171.45z M293.85,140.4c-5.602,2.602-10.45,5.325-14.55,8.175
		c-4.102,2.85-6.951,6.476-8.55,10.875c-0.201,0.6-0.427,1.451-0.675,2.55c-0.251,1.102-0.375,2.198-0.375,3.3
		c0,1.1,0.173,2.049,0.524,2.851c0.35,0.799,0.976,1.199,1.875,1.199c1.898-0.101,3.773-0.899,5.625-2.399
		c1.85-1.5,3.676-3.549,5.476-6.15c1.8-2.599,3.6-5.625,5.399-9.075C290.4,148.275,292.148,144.501,293.85,140.4z"/>
	<path style="fill:#FCE253;stroke:#F5A361;stroke-miterlimit:10;" d="M355.049,145.05c-0.6-4.898-0.424-10.549,0.525-16.95
		c0.951-6.398,2.374-12.949,4.274-19.65c1.898-6.699,4.125-13.324,6.675-19.875c2.551-6.549,5.074-12.375,7.575-17.475
		c2.499-5.1,4.875-9.225,7.125-12.375S385.297,54,386.699,54c0.6,0,1.823,0.375,3.675,1.123c1.849,0.75,3.649,1.697,5.399,2.845
		c1.749,1.148,3.15,2.349,4.2,3.596c1.05,1.247,1.125,2.369,0.226,3.368c-0.9,0.999-2.152,2.871-3.75,5.616
		c-1.602,2.747-3.375,5.991-5.325,9.733c-1.95,3.746-3.952,7.863-6,12.354c-2.051,4.493-4.001,8.986-5.851,13.477
		c-1.852,4.493-3.476,8.836-4.875,13.027c-1.401,4.193-2.426,7.912-3.074,11.156c-0.652,3.244-0.825,5.84-0.525,7.786
		c0.3,1.948,1.299,2.92,3,2.92c0.799,0,1.85-0.6,3.15-1.8c1.298-1.2,2.699-2.674,4.199-4.425c1.5-1.749,3.023-3.624,4.575-5.625
		c1.55-1.999,3.023-3.874,4.425-5.625c1.399-1.749,2.6-3.199,3.601-4.35c0.998-1.148,1.748-1.725,2.25-1.725
		c0.998,0,1.725,0.25,2.175,0.75c0.45,0.501,0.75,1.176,0.9,2.025c0.149,0.851,0.124,1.826-0.075,2.925
		c-0.202,1.102-0.502,2.201-0.9,3.3c-0.899,2.602-2.2,5.65-3.899,9.15c-1.901,4.608-4.151,8.726-6.75,12.354
		c-2.302,3.124-5.077,5.972-8.325,8.541c-3.251,2.571-7.026,3.855-11.325,3.855c-2.302,0-4.252-0.548-5.85-1.65
		c-1.602-1.1-2.926-2.449-3.976-4.05c-1.05-1.598-1.8-3.274-2.25-5.025C355.273,147.876,355.049,146.351,355.049,145.05z"/>
	<path style="fill:#FCE253;stroke:#F5A361;stroke-miterlimit:10;" d="M455.099,116.039c1.699-2.794,3.199-4.338,4.5-4.638
		c1.298-0.3,2.198,0.3,2.699,1.795c0.5,1.498,0.5,3.717,0,6.661c-0.501,2.944-1.701,6.164-3.6,9.656
		c-2.901,4.889-5.726,8.88-8.475,11.974c-2.752,3.094-5.377,5.466-7.875,7.111c-2.501,1.647-4.875,2.597-7.125,2.845
		s-4.426-0.026-6.525-0.825c-3.4,3.195-6.727,5.564-9.975,7.111c-3.251,1.547-6.026,2.372-8.325,2.471
		c-5.501,0.3-9.851-0.722-13.05-3.068c-3.202-2.344-5.452-5.438-6.75-9.281c-1.299-3.841-1.749-8.133-1.351-12.874
		c0.401-4.739,1.374-9.431,2.925-14.072c1.55-4.641,3.601-8.932,6.15-12.875c2.55-3.942,5.374-7.01,8.475-9.206
		c0-1.097,0.601-2.367,1.801-3.815c1.199-1.449,2.774-2.82,4.725-4.118c1.95-1.296,4.174-2.393,6.675-3.293
		c2.499-0.897,5.049-1.348,7.65-1.348c3.398,0,6.499,1.148,9.3,3.443c2.799,2.297,4.95,5.44,6.45,9.431
		c1.5,3.994,2.123,8.709,1.875,14.147c-0.251,5.44-1.627,11.302-4.125,17.587C445.446,128.665,450.097,123.724,455.099,116.039z
		 M410.849,146.25c3.199,0,6.199-0.999,9-3c-2.602-3.499-4.826-7.624-6.676-12.375c-1.852-4.749-3.325-9.624-4.425-14.625
		c-1.2,1.901-2.302,4.526-3.3,7.875c-1.001,3.352-1.552,6.675-1.65,9.975c-0.101,3.3,0.35,6.15,1.351,8.55
		C406.146,145.05,408.048,146.25,410.849,146.25z M429.599,130.05c1.5-3.698,2.498-7.598,3-11.7
		c0.499-4.099,0.398-7.849-0.301-11.25c-0.7-3.398-2.024-6.225-3.975-8.475s-4.627-3.375-8.025-3.375
		c-1.301,0-2.051,1.425-2.25,4.275c-0.201,2.85,0.125,6.202,0.976,10.05c0.849,3.851,2.149,7.725,3.899,11.625
		C424.672,125.1,426.898,128.051,429.599,130.05z"/>
	<path style="fill:#FCE253;stroke:#F5A361;stroke-miterlimit:10;" d="M452.52,132.9c0-8.198,1.624-15.225,4.875-21.075
		c3.248-5.85,7.073-10.65,11.475-14.4c4.399-3.75,8.824-6.525,13.275-8.325c4.448-1.8,7.875-2.7,10.274-2.7
		c2.499,0,4.55,0.352,6.15,1.05c1.599,0.701,2.901,1.575,3.909,2.625c1.006,1.05,1.711,2.227,2.114,3.525
		c0.403,1.301,0.604,2.5,0.604,3.6c0,2.602-0.328,4.875-0.981,6.825c-0.656,1.95-1.538,3.626-2.646,5.025
		c1.209,0.3,2.29,0.727,3.246,1.275c0.954,0.551,1.732,1.125,2.332,1.725c0.6,0.6,0.949,1.252,1.05,1.95
		c0.099,0.701-0.201,1.401-0.899,2.1c-1.2,1.2-2.606,3.15-4.215,5.85c-1.609,2.7-2.965,5.451-4.063,8.25
		c-1.102,2.801-1.702,5.275-1.8,7.425c-0.102,2.151,0.799,3.225,2.699,3.225c1.2,0,2.555-0.6,4.064-1.8
		c1.51-1.2,3.014-2.723,4.514-4.575c1.5-1.849,3-3.849,4.5-6c1.5-2.149,2.926-4.148,4.275-6c1.35-1.849,2.524-3.375,3.525-4.575
		c0.998-1.2,1.8-1.8,2.399-1.8c1.699,0,2.648,1.102,2.851,3.3c0.199,2.201-0.251,4.927-1.351,8.175
		c-1.102,3.25-2.726,6.775-4.875,10.575c-2.151,3.802-4.701,7.327-7.649,10.575c-2.951,3.25-6.23,5.977-9.84,8.175
		c-3.609,2.201-7.363,3.3-11.264,3.3c-2.901,0-5.025-0.875-6.375-2.625c-1.35-1.749-2.275-3.725-2.775-5.925
		c-0.6-2.599-0.75-5.499-0.449-8.7c-1.5,2.602-3.102,4.9-4.801,6.9c-1.401,1.702-2.95,3.25-4.649,4.65
		c-1.702,1.401-3.352,2.1-4.95,2.1c-1.701,0-3.4-0.45-5.1-1.35c-1.702-0.9-3.251-2.325-4.65-4.275c-1.401-1.95-2.55-4.399-3.45-7.35
		C452.97,140.677,452.52,137.1,452.52,132.9z M492.298,98.85c-3,0-5.801,0.9-8.4,2.7c-2.602,1.8-4.875,4.076-6.825,6.825
		c-1.95,2.751-3.551,5.7-4.8,8.85c-1.252,3.15-2.025,6.101-2.325,8.85c-0.3,2.751-0.126,5.025,0.525,6.825
		c0.649,1.8,1.924,2.7,3.825,2.7c1.699,0,3.225-0.675,4.574-2.025c1.351-1.35,2.574-3.023,3.676-5.025c1.099-1.999,2.1-4.148,3-6.45
		c0.899-2.299,1.8-4.449,2.699-6.45c-0.501-0.199-0.951-0.525-1.35-0.975c-0.4-0.45-0.6-1.073-0.6-1.875c0-0.499,0.349-1.2,1.05-2.1
		c0.698-0.9,1.5-1.875,2.399-2.925c0.9-1.05,1.824-2.1,2.775-3.15c0.949-1.05,1.624-1.999,2.025-2.85
		c0.398-0.848,0.473-1.549,0.225-2.1C494.521,99.126,493.696,98.85,492.298,98.85z"/>
	<path style="fill:#FCE253;stroke:#F5A361;stroke-miterlimit:10;" d="M554.396,72.45c2.899,0.9,5.1,2.175,6.6,3.825
		s2.524,3.3,3.075,4.95c0.549,1.65,0.725,3.075,0.525,4.275c-0.202,1.2-0.601,1.8-1.2,1.8c-0.401,0-0.802-0.225-1.2-0.675
		c-0.4-0.45-1.102-0.9-2.1-1.35c-1.001-0.45-2.452-0.825-4.351-1.125c-1.9-0.3-4.5-0.349-7.8-0.15
		c-1.9,3.802-3.825,7.852-5.775,12.15c-1.949,4.301-3.775,8.55-5.475,12.75c-1.701,4.2-3.176,8.201-4.425,12
		c-1.252,3.802-2.151,7.177-2.7,10.125c-0.551,2.951-0.651,5.302-0.3,7.05c0.349,1.75,1.324,2.625,2.925,2.625
		c0.799,0,1.85-0.6,3.15-1.8c1.298-1.2,2.723-2.7,4.274-4.5c1.55-1.8,3.124-3.773,4.726-5.925c1.598-2.149,3.074-4.125,4.425-5.925
		c1.35-1.8,2.55-3.3,3.6-4.5c1.05-1.2,1.823-1.8,2.325-1.8c0.998,0,1.725,0.276,2.175,0.825c0.45,0.551,0.725,1.275,0.825,2.175
		c0.099,0.9,0.049,1.927-0.15,3.075c-0.201,1.15-0.501,2.325-0.899,3.525c-0.9,2.801-2.201,6-3.9,9.6c-2.7,4.9-5.65,9.201-8.85,12.9
		c-1.401,1.601-2.876,3.15-4.425,4.65c-1.552,1.5-3.226,2.801-5.025,3.9c-1.8,1.102-3.651,1.95-5.55,2.55
		c-1.901,0.6-3.851,0.801-5.851,0.6c-1.601-0.098-3.051-0.799-4.35-2.1c-1.301-1.299-2.4-2.925-3.3-4.875
		c-0.9-1.95-1.599-4.1-2.101-6.45c-0.499-2.349-0.75-4.624-0.75-6.825c0-3.698,0.375-7.725,1.125-12.075s1.726-8.874,2.926-13.575
		c1.199-4.699,2.625-9.424,4.274-14.175c1.65-4.749,3.375-9.324,5.175-13.725c-3.501,0.101-6.352-0.274-8.55-1.125
		c-2.198-0.849-3.874-1.95-5.024-3.3c-1.148-1.35-1.898-2.85-2.25-4.5c-0.35-1.65-0.474-3.15-0.375-4.5
		c0.101-1.35,0.375-2.499,0.824-3.45c0.45-0.949,0.877-1.425,1.275-1.425c0.6,0,1.026,0.426,1.275,1.275
		c0.25,0.851,0.926,1.702,2.024,2.55c1.102,0.851,2.874,1.526,5.325,2.025c2.449,0.502,6.174,0.401,11.175-0.3
		c2.799-5.899,5.476-10.673,8.025-14.325c2.55-3.649,4.523-5.475,5.925-5.475c0.6,0,1.85,0.375,3.75,1.125
		c1.898,0.75,3.75,1.701,5.55,2.85c1.8,1.151,3.226,2.377,4.275,3.675c1.05,1.301,1.073,2.5,0.075,3.6
		C558.046,66.251,556.396,68.751,554.396,72.45z"/>
	<path style="fill:#FCE253;stroke:#F5A361;stroke-miterlimit:10;" d="M599.545,160.8c3.799,0,7.125,0.75,9.975,2.25
		s5.273,3.323,7.275,5.476c1.999,2.148,3.574,4.373,4.725,6.675c1.148,2.299,1.85,4.274,2.1,5.925c0.249,1.65,0.05,2.724-0.6,3.225
		c-0.651,0.5-1.725,0-3.225-1.5s-3.601-2.676-6.301-3.524c-2.699-0.851-5.751-1.401-9.149-1.65c-3.401-0.251-7.076-0.251-11.025,0
		c-3.951,0.249-7.976,0.675-12.075,1.275c-2.301,5.899-4.525,11.224-6.675,15.975c-2.151,4.749-4.35,8.775-6.6,12.075
		s-4.676,5.85-7.275,7.65c-2.602,1.8-5.55,2.699-8.85,2.699c-3.601,0-6.601-0.6-9-1.8c-2.4-1.2-4.351-2.65-5.851-4.35
		c-1.5-1.702-2.599-3.551-3.3-5.55c-0.698-2.002-1.05-3.852-1.05-5.551v-0.149c-0.099-0.802-0.049-1.702,0.15-2.7
		c0.4-4.401,1.649-8.351,3.75-11.85c2.1-3.502,4.776-6.577,8.024-9.226c3.251-2.65,6.924-4.9,11.025-6.75
		c4.099-1.852,8.349-3.375,12.75-4.575c1.099-2.899,2.175-5.798,3.225-8.7c1.05-2.899,2.025-5.85,2.925-8.85
		c-2.001,2.302-4.176,4.301-6.524,6c-2.351,1.702-4.776,2.651-7.275,2.85c-2.801,0.101-5.076-0.499-6.825-1.8
		c-1.75-1.298-3.149-2.949-4.199-4.95c-1.051-1.999-1.774-4.148-2.176-6.45c-0.398-2.299-0.6-4.399-0.6-6.3
		c0-3.199,0.375-6.698,1.125-10.5c0.75-3.799,1.725-7.575,2.925-11.325s2.55-7.374,4.05-10.875c1.5-3.5,3.05-6.624,4.65-9.375
		c1.599-2.75,3.15-4.924,4.65-6.525c1.5-1.598,2.798-2.4,3.899-2.4c0.601,0,1.699,0.352,3.3,1.05
		c1.599,0.701,3.125,1.575,4.575,2.625c1.448,1.05,2.573,2.201,3.375,3.45c0.8,1.251,0.75,2.426-0.149,3.525
		c-1.402,1.601-2.827,3.675-4.275,6.225c-1.451,2.55-2.801,5.25-4.05,8.1c-1.252,2.85-2.325,5.7-3.226,8.55
		c-0.899,2.85-1.45,5.426-1.649,7.725c-0.202,2.302-0.026,4.177,0.524,5.625c0.549,1.451,1.625,2.175,3.226,2.175
		c1.399,0,2.774-0.525,4.125-1.575c1.35-1.05,2.625-2.374,3.825-3.975c1.199-1.598,2.299-3.349,3.3-5.25
		c0.998-1.898,1.898-3.698,2.7-5.4l1.5-4.65c1.298-3.999,2.55-7.673,3.75-11.025c1.199-3.35,2.348-6.249,3.449-8.7
		c1.1-2.449,2.176-4.35,3.226-5.7c1.05-1.35,2.024-2.025,2.925-2.025c2.498,0,4.8,0.277,6.9,0.825c2.1,0.551,3.824,1.251,5.175,2.1
		c1.35,0.851,2.224,1.776,2.625,2.775c0.398,1,0.199,1.901-0.601,2.7c-0.501,0.502-1.375,2.276-2.625,5.325
		c-1.251,3.052-2.676,6.776-4.274,11.175c-1.601,4.402-3.326,9.15-5.175,14.25c-1.852,5.1-3.577,10.001-5.176,14.7
		c-1.601,4.702-3.025,8.827-4.274,12.375c-1.252,3.551-2.126,5.977-2.625,7.275c-0.202,0.6-0.401,1.102-0.601,1.5
		c2-0.199,3.976-0.349,5.926-0.45C595.869,160.852,597.744,160.8,599.545,160.8z M538.944,197.7c3.802,2.299,7.451,2.048,10.95-0.75
		c3.499-2.801,6.9-7.252,10.2-13.351c-3.601,1.1-6.9,2.25-9.9,3.45s-5.475,2.424-7.425,3.675c-1.95,1.25-3.3,2.476-4.05,3.676
		C537.97,195.6,538.045,196.699,538.944,197.7z"/>
	<path style="fill:#FCE253;stroke:#F5A361;stroke-miterlimit:10;" d="M612.144,165.15c-1.602-1.102-2.4-2.798-2.4-5.1
		c0-2.299,0.799-4.598,2.4-6.9c1.598-2.198,3.499-3.649,5.699-4.35c2.199-0.698,4.1-0.499,5.7,0.6
		c1.599,1.102,2.374,2.801,2.325,5.1c-0.052,2.302-0.877,4.552-2.475,6.75c-1.602,2.299-3.477,3.799-5.625,4.5
		C615.616,166.448,613.741,166.249,612.144,165.15z"/>
	<path style="fill:#FCE253;stroke:#F5A361;stroke-miterlimit:10;" d="M645.291,160.2c-2.002,0-4.076-0.549-6.226-1.65
		c-2.151-1.099-4.125-2.775-5.925-5.025s-3.276-5.074-4.425-8.475c-1.148-3.398-1.726-7.448-1.726-12.15
		c0-6.499,1.051-12.574,3.15-18.225c2.1-5.648,4.748-10.575,7.95-14.775c3.199-4.2,6.724-7.5,10.575-9.9
		c3.848-2.4,7.574-3.6,11.175-3.6c2.599,0,4.823,0.45,6.675,1.35c1.85,0.9,3.375,2.1,4.575,3.6s2.074,3.202,2.625,5.1
		c0.548,1.9,0.825,3.851,0.825,5.85c0,2.002-0.401,4.177-1.2,6.525c-0.802,2.351-1.826,4.525-3.075,6.525
		c-1.252,2.001-2.7,3.675-4.35,5.025c-1.65,1.35-3.326,2.025-5.025,2.025c-1.9,0-3.476-0.675-4.725-2.025
		c-1.252-1.35-2.126-2.798-2.625-4.35c-0.502-1.549-0.626-3-0.375-4.35c0.248-1.35,0.923-2.025,2.024-2.025
		c1.999,0,3.924-0.75,5.775-2.25c1.849-1.5,3.274-3.124,4.274-4.875c0.999-1.749,1.426-3.375,1.275-4.875s-1.226-2.25-3.225-2.25
		c-2.201,0-4.451,1.125-6.75,3.375c-2.302,2.25-4.376,5.051-6.226,8.4c-1.852,3.352-3.375,7.001-4.575,10.95
		c-1.199,3.952-1.825,7.601-1.875,10.95c-0.051,3.352,0.574,6.15,1.875,8.4c1.299,2.25,3.549,3.375,6.75,3.375
		c4.2,0,7.95-1.298,11.25-3.9c3.301-2.6,6.15-5.449,8.551-8.55c2.399-3.098,4.398-5.948,6-8.55c1.598-2.599,2.85-3.9,3.75-3.9
		c1.999,0,3.049,1.102,3.149,3.3c0.099,2.201-0.551,4.927-1.95,8.175c-1.401,3.251-3.426,6.802-6.074,10.65
		c-2.651,3.851-5.7,7.401-9.15,10.65c-3.45,3.25-7.125,5.977-11.025,8.175C653.091,159.101,649.19,160.2,645.291,160.2z"/>
	<path style="fill:#FCE253;stroke:#F5A361;stroke-miterlimit:10;" d="M752.989,104.7c1.5,0,2.524-0.5,3.075-1.5
		c0.549-0.999,0.698-2.124,0.45-3.375c-0.251-1.25-0.825-2.375-1.725-3.375c-0.9-0.999-2.002-1.5-3.301-1.5
		c-2.901,0-5.076,1.35-6.524,4.05c-1.451,2.7-2.175,6.101-2.175,10.2c0,2.5,0.648,6.025,1.949,10.575
		c1.299,4.552,2.75,9.375,4.351,14.475c0.698,1.901,1.399,4.001,2.1,6.3c0.698,2.302,1.351,4.552,1.95,6.75
		c0.6,2.201,1.073,4.301,1.425,6.3c0.35,2.001,0.525,3.651,0.525,4.95c0,2.602-0.45,5.124-1.351,7.575
		c-0.899,2.449-2.2,4.674-3.899,6.675c-1.702,1.999-3.802,3.601-6.3,4.8c-2.501,1.2-5.302,1.801-8.4,1.801
		c-2.501,0-4.95-0.375-7.35-1.125c-2.4-0.75-4.552-1.826-6.45-3.226c-1.901-1.401-3.427-3.149-4.575-5.25
		c-1.15-2.1-1.725-4.451-1.725-7.05c0-4.5,1.549-8.55,4.649-12.15c3.099-3.6,6.849-6.6,11.25-9c-1.102-3.699-2.175-7.399-3.225-11.1
		c-1.05-3.698-1.875-7.249-2.476-10.65c-2.1,2.001-4.375,4.125-6.824,6.375c-2.452,2.25-5.775,4.676-9.976,7.275
		c0.9,2.1,1.65,4.151,2.25,6.15c0.601,2.001,0.9,3.952,0.9,5.85c0,5.302-1.751,9.577-5.25,12.825
		c-3.502,3.25-8.351,4.875-14.55,4.875c-3.9,0-7.151-0.797-9.75-2.396c-2.602-1.596-3.9-3.942-3.9-7.036
		c0-3.693,0.949-6.986,2.85-9.881c1.898-2.893,4.399-5.588,7.5-8.084c-0.899-2.095-1.949-4.216-3.149-6.363
		c-1.2-2.145-2.325-4.289-3.375-6.436c-1.05-2.147-1.95-4.317-2.7-6.514c-0.75-2.196-1.125-4.343-1.125-6.438
		c0-3.691,0.9-7.034,2.7-10.029c1.8-2.996,4.125-5.541,6.975-7.636c2.851-2.095,6.023-3.694,9.525-4.791
		c3.499-1.097,6.949-1.647,10.35-1.647c2.3,0,4.399,0.373,6.3,1.118c1.898,0.746,3.525,1.69,4.875,2.833
		c1.351,1.144,2.375,2.459,3.075,3.949c0.698,1.491,1.05,2.979,1.05,4.47c0,3.082-0.851,5.69-2.55,7.826
		c-1.701,2.138-3.75,3.204-6.149,3.204c-1.301,0-2.377-0.249-3.226-0.75c-0.851-0.5-1.477-1.024-1.875-1.575
		c-0.4-0.548-0.6-1.073-0.6-1.575c0-0.5,0.248-0.75,0.75-0.75c1.5,0,2.524-0.5,3.075-1.5c0.548-0.999,0.724-2.124,0.524-3.375
		c-0.201-1.25-0.75-2.375-1.649-3.375c-0.9-0.999-2.002-1.5-3.301-1.5c-3,0-5.451,1.326-7.35,3.975
		c-1.9,2.651-2.85,6.026-2.85,10.125c0,1.102,0.225,2.276,0.675,3.525c0.45,1.251,1.024,2.576,1.725,3.975
		c0.698,1.402,1.448,2.827,2.25,4.275c0.8,1.451,1.55,2.875,2.25,4.275c11.799-6.5,18.249-12.5,19.351-18
		c0.398-3.3,1.474-6.272,3.225-8.918c1.748-2.646,3.874-4.88,6.375-6.699c2.498-1.818,5.273-3.197,8.325-4.132
		c3.049-0.933,6.124-1.401,9.225-1.401c2.4,0,4.55,0.373,6.45,1.118c1.898,0.746,3.499,1.69,4.8,2.833
		c1.299,1.144,2.3,2.459,3,3.949c0.698,1.491,1.05,2.979,1.05,4.47c0,3.082-0.824,5.69-2.475,7.826
		c-1.65,2.138-3.727,3.204-6.225,3.204c-1.301,0-2.377-0.249-3.226-0.75c-0.851-0.5-1.477-1.024-1.875-1.575
		c-0.4-0.548-0.576-1.073-0.524-1.575C752.214,104.951,752.488,104.7,752.989,104.7z M691.79,147.45c0-1.2-0.202-2.349-0.601-3.45
		c-2.001,1.301-3.576,2.625-4.725,3.975c-1.151,1.35-1.726,2.625-1.726,3.825c0,0.502,0.199,1.027,0.601,1.575
		c0.398,0.551,1.2,0.825,2.399,0.825c1.399,0,2.424-0.675,3.075-2.025C691.464,150.825,691.79,149.25,691.79,147.45z M735.29,160.5
		c0-1.298-0.226-2.948-0.676-4.95c-0.449-1.999-0.975-4.298-1.574-6.9c-2.902,2.001-5.276,4.125-7.125,6.375
		c-1.852,2.25-2.775,4.626-2.775,7.125c0,1.898,0.549,3.375,1.65,4.425c1.099,1.05,2.449,1.575,4.05,1.575
		c1.999,0,3.574-0.825,4.725-2.476C734.713,164.025,735.29,162.3,735.29,160.5z"/>
</g>
</svg>
